STARTCHAR 0021
ENCODING 33
SWIDTH 240 0
DWIDTH 4 0
BBX 2 18 1 -1
BITMAP
00
00
00
00
00
C0
C0
C0
C0
C0
C0
C0
C0
C0
C0
00
00
C0
ENDCHAR
STARTCHAR 0022
ENCODING 34
SWIDTH 420 0
DWIDTH 7 0
BBX 5 18 1 8
BITMAP
00
00
00
00
00
00
00
00
00
00
00
00
00
00
98
98
98
90
90
ENDCHAR
STARTCHAR 0023
ENCODING 35
SWIDTH 840 0
DWIDTH 14 0
BBX 14 18 0 0
BITMAP
0000
0000
0000
0000
0000
0000
0410
0430
0430
3FF8
7FFC
0860
1860
1840
7FF8
FFF8
30C0
3080
2180
ENDCHAR
STARTCHAR 0024
ENCODING 36
SWIDTH 720 0
DWIDTH 12 0
BBX 9 18 1 -3
BITMAP
0000
0800
0800
1F00
3F00
6800
C800
6800
7E00
0F00
0980
0980
0980
CB00
FE00
0800
0800
0800
ENDCHAR
STARTCHAR 0025
ENCODING 37
SWIDTH 840 0
DWIDTH 14 0
BBX 12 18 1 0
BITMAP
0000
0000
0000
0000
0000
0000
7880
C980
C900
7B00
2200
0600
0600
0400
0CE0
0930
1910
1130
31E0
ENDCHAR
STARTCHAR 0026
ENCODING 38
SWIDTH 660 0
DWIDTH 11 0
BBX 9 18 1 -1
BITMAP
0000
0000
0000
0000
0000
0C00
1E00
1A00
1600
1C00
1800
7C00
C580
8780
8300
8300
C780
7D80
0080
ENDCHAR
STARTCHAR 0027
ENCODING 39
SWIDTH 360 0
DWIDTH 6 0
BBX 2 18 2 10
BITMAP
00
00
00
00
00
00
00
00
00
00
00
00
00
00
00
C0
C0
C0
40
ENDCHAR
STARTCHAR 0028
ENCODING 40
SWIDTH 360 0
DWIDTH 6 0
BBX 5 18 1 -4
BITMAP
00
00
18
30
60
60
40
C0
C0
C0
C0
C0
C0
C0
C0
60
60
38
ENDCHAR
STARTCHAR 0029
ENCODING 41
SWIDTH 360 0
DWIDTH 6 0
BBX 5 18 1 -4
BITMAP
00
C0
E0
60
30
30
10
18
18
18
18
18
10
30
30
60
C0
80
ENDCHAR
STARTCHAR 002A
ENCODING 42
SWIDTH 540 0
DWIDTH 9 0
BBX 8 7 0 6
BITMAP
18
18
FF
3C
3C
66
02
ENDCHAR
STARTCHAR 002B
ENCODING 43
SWIDTH 480 0
DWIDTH 8 0
BBX 7 6 0 3
BITMAP
18
10
FE
78
18
10
ENDCHAR
STARTCHAR 002C
ENCODING 44
SWIDTH 300 0
DWIDTH 5 0
BBX 2 4 2 -3
BITMAP
40
C0
80
80
ENDCHAR
STARTCHAR 002D
ENCODING 45
SWIDTH 420 0
DWIDTH 7 0
BBX 5 1 1 4
BITMAP
F8
ENDCHAR
STARTCHAR 002E
ENCODING 46
SWIDTH 240 0
DWIDTH 4 0
BBX 2 2 1 -1
BITMAP
C0
C0
ENDCHAR
STARTCHAR 002F
ENCODING 47
SWIDTH 540 0
DWIDTH 9 0
BBX 7 18 1 -1
BITMAP
00
00
00
00
06
06
04
0C
08
18
10
30
20
60
40
C0
80
80
ENDCHAR
STARTCHAR 0030
ENCODING 48
SWIDTH 600 0
DWIDTH 10 0
BBX 10 18 0 0
BITMAP
0000
0000
0000
0000
0000
0C00
3F00
3180
6080
4080
40C0
C0C0
40C0
4080
4080
6180
3300
3F00
ENDCHAR
STARTCHAR 0031
ENCODING 49
SWIDTH 480 0
DWIDTH 8 0
BBX 5 13 1 0
BITMAP
10
30
F0
70
30
30
30
30
30
30
30
38
F8
ENDCHAR
STARTCHAR 0032
ENCODING 50
SWIDTH 600 0
DWIDTH 10 0
BBX 8 13 1 0
BITMAP
08
3E
63
43
03
06
0C
38
70
60
C0
FE
FF
ENDCHAR
STARTCHAR 0033
ENCODING 51
SWIDTH 600 0
DWIDTH 10 0
BBX 8 12 1 0
BITMAP
7E
66
03
02
1E
3C
06
03
03
C3
C6
7C
ENDCHAR
STARTCHAR 0034
ENCODING 52
SWIDTH 600 0
DWIDTH 10 0
BBX 10 18 0 0
BITMAP
0000
0000
0000
0000
0000
0300
0700
0700
0F00
1B00
3300
3300
6300
FFC0
0300
0300
0300
0300
ENDCHAR
STARTCHAR 0035
ENCODING 53
SWIDTH 600 0
DWIDTH 10 0
BBX 8 18 1 -1
BITMAP
00
00
00
00
01
FF
40
C0
FE
FF
C3
C1
01
01
03
C7
7E
10
ENDCHAR
STARTCHAR 0036
ENCODING 54
SWIDTH 600 0
DWIDTH 10 0
BBX 8 18 1 -1
BITMAP
00
00
00
00
08
18
38
20
60
DC
FE
C3
83
C3
C3
C2
7E
18
ENDCHAR
STARTCHAR 0037
ENCODING 55
SWIDTH 600 0
DWIDTH 10 0
BBX 9 12 1 -1
BITMAP
FF80
0300
0600
0600
0C00
0C00
1800
1800
3000
3000
2000
6000
ENDCHAR
STARTCHAR 0038
ENCODING 56
SWIDTH 600 0
DWIDTH 10 0
BBX 8 12 1 0
BITMAP
3E
62
C2
C2
66
3C
66
C3
C3
C3
C3
7E
ENDCHAR
STARTCHAR 0039
ENCODING 57
SWIDTH 600 0
DWIDTH 10 0
BBX 8 18 1 -1
BITMAP
00
00
00
00
08
7E
C3
C3
81
C1
C3
7F
1B
06
06
1C
78
60
ENDCHAR
STARTCHAR 003A
ENCODING 58
SWIDTH 300 0
DWIDTH 5 0
BBX 2 8 1 1
BITMAP
C0
40
00
00
00
40
40
40
ENDCHAR
STARTCHAR 003B
ENCODING 59
SWIDTH 300 0
DWIDTH 5 0
BBX 2 11 1 -2
BITMAP
40
40
00
00
00
00
00
40
C0
80
80
ENDCHAR
STARTCHAR 003C
ENCODING 60
SWIDTH 360 0
DWIDTH 6 0
BBX 5 7 0 2
BITMAP
08
18
30
60
E0
30
18
ENDCHAR
STARTCHAR 003D
ENCODING 61
SWIDTH 540 0
DWIDTH 9 0
BBX 6 6 1 2
BITMAP
FC
00
00
00
FC
FC
ENDCHAR
STARTCHAR 003E
ENCODING 62
SWIDTH 360 0
DWIDTH 6 0
BBX 5 7 1 1
BITMAP
80
C0
70
18
30
60
C0
ENDCHAR
STARTCHAR 003F
ENCODING 63
SWIDTH 540 0
DWIDTH 9 0
BBX 8 13 0 -1
BITMAP
38
FE
46
03
03
07
0E
1C
30
00
20
20
20
ENDCHAR
STARTCHAR 0040
ENCODING 64
SWIDTH 960 0
DWIDTH 16 0
BBX 13 18 1 -1
BITMAP
0000
0000
0000
0000
1FC0
38E0
6030
6618
CE18
D908
D908
DB18
DFF0
C4E0
6000
7000
3CE0
0FC0
ENDCHAR
STARTCHAR 0041
ENCODING 65
SWIDTH 720 0
DWIDTH 12 0
BBX 10 12 1 0
BITMAP
0200
0700
0700
0F00
1900
1980
3780
7F80
7180
6080
C0C0
C0C0
ENDCHAR
STARTCHAR 0042
ENCODING 66
SWIDTH 660 0
DWIDTH 11 0
BBX 8 13 2 0
BITMAP
F0
FC
86
86
86
86
9C
FC
8E
83
83
9E
FC
ENDCHAR
STARTCHAR 0043
ENCODING 67
SWIDTH 600 0
DWIDTH 10 0
BBX 9 12 1 0
BITMAP
0F80
1F80
3180
6000
4000
C000
C000
8000
8000
C300
6F00
7C00
ENDCHAR
STARTCHAR 0044
ENCODING 68
SWIDTH 720 0
DWIDTH 12 0
BBX 10 18 1 -1
BITMAP
0000
0000
0000
0000
4000
7000
7C00
4F00
4380
4180
40C0
40C0
4040
40C0
40C0
C180
7F00
3E00
ENDCHAR
STARTCHAR 0045
ENCODING 69
SWIDTH 600 0
DWIDTH 10 0
BBX 9 18 1 -1
BITMAP
0000
0000
0000
0000
FF80
FF80
C000
C000
C000
C000
FF00
F800
C000
C000
C000
C000
7F00
3F00
ENDCHAR
STARTCHAR 0046
ENCODING 70
SWIDTH 600 0
DWIDTH 10 0
BBX 9 18 1 -1
BITMAP
0000
0000
0000
0000
7E00
7F80
4000
4000
4000
5E00
FF00
C000
C000
C000
C000
C000
C000
4000
ENDCHAR
STARTCHAR 0047
ENCODING 71
SWIDTH 660 0
DWIDTH 11 0
BBX 10 18 1 -1
BITMAP
0000
0000
0000
0000
0E00
1F80
3180
6000
6000
C000
C080
9FC0
9880
8180
8180
C700
7E00
1800
ENDCHAR
STARTCHAR 0048
ENCODING 72
SWIDTH 780 0
DWIDTH 13 0
BBX 11 18 1 -1
BITMAP
0000
0000
0000
0000
4020
4060
4060
4060
C060
C060
C7E0
7FE0
E040
C060
C060
C060
C060
4000
ENDCHAR
STARTCHAR 0049
ENCODING 73
SWIDTH 540 0
DWIDTH 9 0
BBX 8 12 1 0
BITMAP
FE
FF
30
30
30
30
30
30
30
30
3E
FE
ENDCHAR
STARTCHAR 004A
ENCODING 74
SWIDTH 660 0
DWIDTH 11 0
BBX 10 18 1 -1
BITMAP
0000
0000
0000
0000
0000
3FC0
0600
0600
0600
0600
0600
0600
0600
8400
8400
C400
7C00
3800
ENDCHAR
STARTCHAR 004B
ENCODING 75
SWIDTH 600 0
DWIDTH 10 0
BBX 8 13 2 -1
BITMAP
C3
C6
CC
98
B8
F0
E0
F0
B8
9C
8E
87
80
ENDCHAR
STARTCHAR 004C
ENCODING 76
SWIDTH 540 0
DWIDTH 9 0
BBX 8 18 1 0
BITMAP
00
00
00
00
00
C0
C0
C0
C0
C0
C0
C0
C0
C0
C0
87
FF
F0
ENDCHAR
STARTCHAR 004D
ENCODING 77
SWIDTH 900 0
DWIDTH 15 0
BBX 13 18 1 -1
BITMAP
0000
0000
0000
0000
0000
3060
3860
38E0
38E0
78A0
69B0
6DB0
4D30
CF10
C718
C718
C618
0008
ENDCHAR
STARTCHAR 004E
ENCODING 78
SWIDTH 780 0
DWIDTH 13 0
BBX 12 18 1 0
BITMAP
0000
0000
0000
0000
0000
C060
E020
F030
F030
D830
CC30
C630
C330
C3B0
C1F0
C0F0
C060
8000
ENDCHAR
STARTCHAR 004F
ENCODING 79
SWIDTH 780 0
DWIDTH 13 0
BBX 12 18 1 -1
BITMAP
0000
0000
0000
0000
0000
1FC0
38E0
7060
6030
C030
C030
C020
C060
C060
C0C0
71C0
3F80
0400
ENDCHAR
STARTCHAR 0050
ENCODING 80
SWIDTH 540 0
DWIDTH 9 0
BBX 7 18 1 0
BITMAP
00
00
00
00
00
78
FC
C6
C2
C2
C6
8C
F8
80
80
80
80
80
ENDCHAR
STARTCHAR 0051
ENCODING 81
SWIDTH 900 0
DWIDTH 15 0
BBX 13 18 1 -4
BITMAP
0000
0000
1FC0
38E0
6030
C030
C010
8018
8018
8018
C218
C330
63E0
3FC0
0F60
0030
0018
0008
ENDCHAR
STARTCHAR 0052
ENCODING 82
SWIDTH 600 0
DWIDTH 10 0
BBX 9 12 1 1
BITMAP
FC00
CE00
C300
C300
C100
C300
FE00
FC00
FC00
C700
C380
C180
ENDCHAR
STARTCHAR 0053
ENCODING 83
SWIDTH 720 0
DWIDTH 12 0
BBX 10 12 1 0
BITMAP
0F00
3F80
2000
6000
7000
3F00
0380
00C0
00C0
80C0
C180
7F00
ENDCHAR
STARTCHAR 0054
ENCODING 84
SWIDTH 660 0
DWIDTH 11 0
BBX 11 12 1 0
BITMAP
FFE0
3FE0
0C00
0C00
0C00
0C00
0C00
0400
0400
0400
0400
0400
ENDCHAR
STARTCHAR 0055
ENCODING 85
SWIDTH 720 0
DWIDTH 12 0
BBX 10 12 1 0
BITMAP
C040
C040
C040
C040
C040
C040
C0C0
C0C0
40C0
6080
7180
3F00
ENDCHAR
STARTCHAR 0056
ENCODING 86
SWIDTH 660 0
DWIDTH 11 0
BBX 10 18 1 0
BITMAP
0000
0000
0000
0000
0000
C0C0
C180
4180
6100
6300
6300
2200
3600
3600
1C00
1C00
1800
0800
ENDCHAR
STARTCHAR 0057
ENCODING 87
SWIDTH 1020 0
DWIDTH 17 0
BBX 16 18 1 -1
BITMAP
0000
0000
0000
0000
0000
C183
C183
6382
6386
63C6
26C4
36CC
3648
3C58
1C78
1870
1870
0020
ENDCHAR
STARTCHAR 0058
ENCODING 88
SWIDTH 720 0
DWIDTH 12 0
BBX 10 18 1 -1
BITMAP
0000
0000
0000
0000
0000
C040
60C0
3180
3300
1B00
0E00
0E00
1E00
3300
6180
E180
C0C0
8040
ENDCHAR
STARTCHAR 0059
ENCODING 89
SWIDTH 660 0
DWIDTH 11 0
BBX 10 12 0 -1
BITMAP
C0C0
60C0
6180
3180
1300
1B00
0E00
0E00
0600
0C00
0800
1800
ENDCHAR
STARTCHAR 005A
ENCODING 90
SWIDTH 720 0
DWIDTH 12 0
BBX 10 12 1 0
BITMAP
FFC0
01C0
0300
0600
0C00
1800
1800
3000
6000
6000
C000
FFC0
ENDCHAR
STARTCHAR 005B
ENCODING 91
SWIDTH 360 0
DWIDTH 6 0
BBX 5 18 1 -3
BITMAP
00
00
00
70
40
40
40
40
40
40
40
40
40
C0
C0
C0
C0
F8
ENDCHAR
STARTCHAR 005C
ENCODING 92
SWIDTH 540 0
DWIDTH 9 0
BBX 7 18 1 -1
BITMAP
00
00
00
00
00
C0
60
60
30
30
10
18
08
0C
0C
04
06
02
ENDCHAR
STARTCHAR 005D
ENCODING 93
SWIDTH 360 0
DWIDTH 6 0
BBX 5 18 1 -3
BITMAP
00
00
00
78
18
10
10
10
18
18
18
18
18
18
18
18
18
F8
ENDCHAR
STARTCHAR 005E
ENCODING 94
SWIDTH 600 0
DWIDTH 10 0
BBX 6 4 2 9
BITMAP
30
78
CC
84
ENDCHAR
STARTCHAR 005F
ENCODING 95
SWIDTH 600 0
DWIDTH 10 0
BBX 11 2 0 -3
BITMAP
FFE0
FFE0
ENDCHAR
STARTCHAR 0060
ENCODING 96
SWIDTH 540 0
DWIDTH 9 0
BBX 4 3 1 11
BITMAP
C0
60
30
ENDCHAR
STARTCHAR 0061
ENCODING 97
SWIDTH 540 0
DWIDTH 9 0
BBX 8 9 0 0
BITMAP
3F
63
62
C2
C2
C2
63
7F
01
ENDCHAR
STARTCHAR 0062
ENCODING 98
SWIDTH 600 0
DWIDTH 10 0
BBX 8 18 1 0
BITMAP
00
00
00
00
00
40
C0
C0
C0
C8
FE
E3
C3
C1
C1
C3
C6
FC
ENDCHAR
STARTCHAR 0063
ENCODING 99
SWIDTH 540 0
DWIDTH 9 0
BBX 7 10 1 -1
BITMAP
18
3E
60
C0
C0
80
80
C6
7E
10
ENDCHAR
STARTCHAR 0064
ENCODING 100
SWIDTH 600 0
DWIDTH 10 0
BBX 8 18 1 0
BITMAP
00
00
00
00
00
01
03
03
03
03
7F
47
C3
83
83
C3
E7
7F
ENDCHAR
STARTCHAR 0065
ENCODING 101
SWIDTH 540 0
DWIDTH 9 0
BBX 8 8 1 1
BITMAP
7E
C2
CE
B8
E0
80
C3
7E
ENDCHAR
STARTCHAR 0066
ENCODING 102
SWIDTH 480 0
DWIDTH 8 0
BBX 7 18 1 -1
BITMAP
00
00
00
00
1E
1C
30
30
20
FC
E0
20
20
20
20
20
20
20
ENDCHAR
STARTCHAR 0067
ENCODING 103
SWIDTH 540 0
DWIDTH 9 0
BBX 8 18 0 -5
BITMAP
00
00
00
00
00
3F
61
63
43
C3
43
67
3F
03
02
06
FE
38
ENDCHAR
STARTCHAR 0068
ENCODING 104
SWIDTH 600 0
DWIDTH 10 0
BBX 8 18 1 -1
BITMAP
00
00
00
00
00
C0
C0
C0
C0
C0
DE
F6
E2
C2
C2
C2
C3
C3
ENDCHAR
STARTCHAR 0069
ENCODING 105
SWIDTH 300 0
DWIDTH 5 0
BBX 3 12 1 0
BITMAP
60
40
00
00
40
40
40
C0
C0
C0
C0
40
ENDCHAR
STARTCHAR 006A
ENCODING 106
SWIDTH 420 0
DWIDTH 7 0
BBX 5 18 0 -5
BITMAP
00
18
10
00
00
18
18
18
18
18
18
08
08
08
88
C8
78
30
ENDCHAR
STARTCHAR 006B
ENCODING 107
SWIDTH 540 0
DWIDTH 9 0
BBX 8 13 1 0
BITMAP
40
40
40
40
42
46
4C
58
F8
EC
C6
C6
C3
ENDCHAR
STARTCHAR 006C
ENCODING 108
SWIDTH 300 0
DWIDTH 5 0
BBX 2 13 1 0
BITMAP
40
40
40
40
40
40
40
40
40
40
C0
C0
C0
ENDCHAR
STARTCHAR 006D
ENCODING 109
SWIDTH 780 0
DWIDTH 13 0
BBX 11 10 1 -1
BITMAP
C880
FFC0
FE40
E460
C460
C460
C460
C420
C620
0420
ENDCHAR
STARTCHAR 006E
ENCODING 110
SWIDTH 540 0
DWIDTH 9 0
BBX 7 10 1 -1
BITMAP
CC
FC
E6
E6
C6
C6
C6
C6
C2
02
ENDCHAR
STARTCHAR 006F
ENCODING 111
SWIDTH 540 0
DWIDTH 9 0
BBX 7 8 1 0
BITMAP
7C
E4
C6
86
86
86
CC
7C
ENDCHAR
STARTCHAR 0070
ENCODING 112
SWIDTH 540 0
DWIDTH 9 0
BBX 7 18 1 -5
BITMAP
00
00
00
00
C0
FC
E6
C6
C2
C2
C6
CE
FC
C0
C0
C0
C0
C0
ENDCHAR
STARTCHAR 0071
ENCODING 113
SWIDTH 540 0
DWIDTH 9 0
BBX 8 13 0 -5
BITMAP
0C
3F
63
63
43
C2
42
66
3E
06
06
06
06
ENDCHAR
STARTCHAR 0072
ENCODING 114
SWIDTH 480 0
DWIDTH 8 0
BBX 6 9 1 -1
BITMAP
0C
FC
E4
C4
C0
C0
C0
C0
C0
ENDCHAR
STARTCHAR 0073
ENCODING 115
SWIDTH 480 0
DWIDTH 8 0
BBX 7 9 0 -1
BITMAP
0E
3E
62
60
7C
0E
02
C6
7E
ENDCHAR
STARTCHAR 0074
ENCODING 116
SWIDTH 480 0
DWIDTH 8 0
BBX 6 11 1 -1
BITMAP
30
30
FC
FC
30
30
30
30
30
30
30
ENDCHAR
STARTCHAR 0075
ENCODING 117
SWIDTH 540 0
DWIDTH 9 0
BBX 7 10 1 -1
BITMAP
82
C6
C6
86
86
C6
C6
C6
7E
02
ENDCHAR
STARTCHAR 0076
ENCODING 118
SWIDTH 480 0
DWIDTH 8 0
BBX 7 9 1 0
BITMAP
80
86
C4
CC
4C
68
78
30
30
ENDCHAR
STARTCHAR 0077
ENCODING 119
SWIDTH 660 0
DWIDTH 11 0
BBX 10 9 1 -1
BITMAP
8CC0
8CC0
9C80
D480
D580
F780
6700
6300
4200
ENDCHAR
STARTCHAR 0078
ENCODING 120
SWIDTH 600 0
DWIDTH 10 0
BBX 8 9 1 0
BITMAP
41
63
26
3C
18
3C
6C
C6
83
ENDCHAR
STARTCHAR 0079
ENCODING 121
SWIDTH 540 0
DWIDTH 9 0
BBX 8 13 0 -5
BITMAP
C1
C3
62
26
34
1C
1C
18
18
30
30
20
20
ENDCHAR
STARTCHAR 007A
ENCODING 122
SWIDTH 540 0
DWIDTH 9 0
BBX 7 10 1 -1
BITMAP
46
FE
06
0C
18
18
30
60
FE
C2
ENDCHAR
STARTCHAR 007B
ENCODING 123
SWIDTH 360 0
DWIDTH 6 0
BBX 6 18 0 -3
BITMAP
00
00
1C
30
20
20
20
20
20
60
C0
60
20
60
60
20
30
1C
ENDCHAR
STARTCHAR 007C
ENCODING 124
SWIDTH 420 0
DWIDTH 7 0
BBX 1 18 3 -3
BITMAP
00
80
80
80
80
80
80
80
80
80
80
80
80
80
80
80
80
80
ENDCHAR
STARTCHAR 007D
ENCODING 125
SWIDTH 360 0
DWIDTH 6 0
BBX 6 18 0 -3
BITMAP
00
00
E0
30
10
10
10
10
30
18
1C
18
10
10
10
30
30
E0
ENDCHAR
STARTCHAR 007E
ENCODING 126
SWIDTH 600 0
DWIDTH 10 0
BBX 8 4 1 4
BITMAP
20
79
DB
8F
ENDCHAR
ENDFONT
